<svg width="20" height="14" viewBox="0 0 20 14" fill="none" xmlns="http://www.w3.org/2000/svg">
<rect width="20" height="13.3333" rx="2" fill="#DA291C"/>
<path d="M13.1019 7.00155V9.86756H11.8208V7.2058C11.8208 6.62737 11.4875 6.35613 11.0779 6.35613C10.6085 6.35613 10.2841 6.65515 10.2841 7.31691V9.8643H9.00299V3.33325H10.2841V5.63881C10.5143 5.29404 10.9418 5.07018 11.5054 5.07018C12.3679 5.06855 13.1019 5.74011 13.1019 7.00155Z" fill="white"/>
<path d="M6.42425 5.06543C5.17753 5.06543 4.16699 6.17 4.16699 7.53275C4.16699 8.89549 5.17753 10.0001 6.42425 10.0001C7.67097 10.0001 8.68151 8.89549 8.68151 7.53275C8.68151 6.17 7.67097 5.06543 6.42425 5.06543ZM6.42425 8.63242C5.86816 8.63242 5.4182 8.14059 5.4182 7.53275C5.4182 6.92491 5.86816 6.43308 6.42425 6.43308C6.98034 6.43308 7.4303 6.92491 7.4303 7.53275C7.4303 8.14059 6.98034 8.63242 6.42425 8.63242Z" fill="white"/>
<path d="M13.3799 9.11096C13.3799 8.62567 13.7461 8.22534 14.1901 8.22534C14.6341 8.22534 15.0003 8.62567 15.0003 9.11096C15.0003 9.59626 14.6341 9.99658 14.1901 9.99658C13.7461 9.99822 13.3799 9.59626 13.3799 9.11096Z" fill="white"/>
<path d="M13.4218 5.75489V3.55882C13.4218 3.43463 13.513 3.33496 13.6266 3.33496H14.7508C14.8644 3.33496 14.9555 3.43463 14.9555 3.55882V5.75326C14.9555 5.76306 14.9555 5.77287 14.9541 5.78267L14.7238 7.66992C14.7104 7.78104 14.6237 7.86437 14.5205 7.86437H13.8568C13.7537 7.86437 13.667 7.78104 13.6535 7.66992L13.4233 5.78267C13.4233 5.7745 13.4218 5.7647 13.4218 5.75489Z" fill="white"/>
</svg>
